<?xml version="1.0" encoding="iso-8859-1"?>
<!-- Generator: Adobe Illustrator 18.0.0, SVG Export Plug-In . SVG Version: 6.00 Build 0)  -->
<!DOCTYPE svg PUBLIC "-//W3C//DTD SVG 1.1//EN" "http://www.w3.org/Graphics/SVG/1.1/DTD/svg11.dtd">
<svg version="1.1" id="Capa_1" xmlns="http://www.w3.org/2000/svg" xmlns:xlink="http://www.w3.org/1999/xlink" x="0px" y="0px"
	 viewBox="0 0 250.123 250.123" style="enable-background:new 0 0 250.123 250.123;" xml:space="preserve">
<path d="M125.165,183.452c25.714,0,46.634-20.919,46.634-46.633c0-25.713-20.92-46.633-46.634-46.633s-46.634,20.92-46.634,46.633
	C78.531,162.532,99.451,183.452,125.165,183.452z M125.165,110.185c14.686,0,26.634,11.947,26.634,26.633
	c0,14.686-11.948,26.633-26.634,26.633c-14.686,0-26.634-11.948-26.634-26.633C98.531,122.133,110.479,110.185,125.165,110.185z
	 M202.939,104.399h-27.388v-20h27.388V104.399z M29.339,35.061v13.571H12v71.854l-12,5.261v89.313h250.123v-89.313l-11.792-5.17
	V48.632H83.879V35.061H29.339z M218.331,68.632v53.929h-0.019v72.5H32v-61.505v-10.995V68.632h1.062h16.277h14.54h15.433H218.331z"
	/>
<g>
</g>
<g>
</g>
<g>
</g>
<g>
</g>
<g>
</g>
<g>
</g>
<g>
</g>
<g>
</g>
<g>
</g>
<g>
</g>
<g>
</g>
<g>
</g>
<g>
</g>
<g>
</g>
<g>
</g>
</svg>
